<svg version="1.0" xmlns="http://www.w3.org/2000/svg"
 width="150.000000pt" height="150.000000pt" viewBox="0 0 150.000000 150.000000"
 preserveAspectRatio="xMidYMid meet">
<g transform="translate(0.000000,150.000000) scale(0.100000,-0.100000)"
 fill="#000000" stroke="none">
<path d="M0 750 l0 -750 750 0 750 0 0 750 0 750 -750 0 -750 0 0 -750z m899
425 c25 -28 41 -54 41 -70 0 -24 -2 -25 -61 -25 -52 0 -62 3 -66 20 -5 19 -14
20 -144 20 l-139 0 0 -159 0 -160 124 -3 c68 -2 131 -2 140 0 12 3 16 15 16
48 l0 44 65 0 65 0 0 -62 c0 -58 -2 -65 -37 -100 l-37 -38 -168 0 -167 0 -3
-127 -3 -128 -103 -3 -103 -3 3 53 c3 52 4 53 36 56 l32 3 0 290 0 289 -35 0
-35 0 0 50 0 50 269 0 268 0 42 -45z m215 -186 l46 -51 0 -148 0 -149 -31 -22
-30 -21 25 -27 c25 -27 26 -30 26 -171 l0 -144 -47 -48 -47 -48 -263 0 -263 0
0 50 0 50 35  0 35 0 0 195 0 195 213 2 212 3 0 140 0 140 -147 3 -148 3 0 -51
0 -50 -65 0 -65 0 0 100 0 100 234 0 234 0 46 -51z"/>
<path d="M730 405 l0 -145 145 0 145 0 0 139 0 138 -82 6 c-46 4 -111 7 -145
7 l-63 0 0 -145z"/>
</g>
</svg>
